<svg width="102" height="231" viewBox="0 0 102 231" fill="none" xmlns="http://www.w3.org/2000/svg">
<path d="M100.428 221.821C101.71 221.308 102.334 219.853 101.821 218.571L93.4649 197.681C92.9521 196.399 91.4971 195.775 90.2152 196.288C88.9332 196.801 88.3097 198.256 88.8225 199.538L96.2503 218.107L77.6808 225.535C76.3988 226.048 75.7753 227.503 76.2881 228.785C76.8009 230.067 78.2558 230.69 79.5377 230.177L100.428 221.821ZM100.485 217.202C96.469 215.481 84.9836 208.184 71.1969 196.272C57.4769 184.418 41.6823 168.168 28.9683 148.696C16.2535 129.222 6.68188 106.624 5.24575 82.0337C3.81255 57.4939 10.4681 30.7748 30.5277 2.96216L26.4724 0.037328C5.78194 28.7247 -1.25004 56.5682 0.254256 82.3252C1.75562 108.032 11.7465 131.465 24.7817 151.429C37.8177 171.395 53.9606 187.988 67.928 200.056C81.8289 212.066 93.781 219.769 98.5152 221.798L100.485 217.202Z" fill="white"/>
</svg>
