<svg width="321" height="213" viewBox="0 0 321 213" fill="none" xmlns="http://www.w3.org/2000/svg">
<path d="M311.407 212.066C312.733 212.449 314.119 211.685 314.503 210.359L320.754 188.745C321.138 187.418 320.374 186.032 319.048 185.648C317.721 185.265 316.335 186.029 315.951 187.355L310.394 206.568L291.182 201.011C289.856 200.627 288.469 201.391 288.086 202.718C287.702 204.044 288.466 205.43 289.793 205.814L311.407 212.066ZM0.749174 5.44408C1.10555 5.43442 2.32264 5.57674 4.59515 6.03162C6.75971 6.46489 9.66138 7.13397 13.2225 8.05067C20.3411 9.88313 30.0346 12.6895 41.6331 16.5354C64.8305 24.2275 95.5995 36.0618 128.582 52.5445C194.617 85.5445 269.193 137.011 309.912 210.871L314.291 208.457C272.851 133.291 197.208 81.2494 130.817 48.0719C97.5878 31.4659 66.5928 19.5441 43.2068 11.7896C31.5135 7.91218 21.7104 5.0726 14.469 3.20852C10.8501 2.27697 7.85595 1.58514 5.57651 1.12887C3.405 0.694209 1.62993 0.418365 0.613664 0.445919L0.749174 5.44408Z" fill="white"/>
</svg>
