<svg width="88" height="207" viewBox="0 0 88 207" fill="none" xmlns="http://www.w3.org/2000/svg">
<path d="M74.6913 204.54C76.0686 204.442 77.1054 203.246 77.0071 201.869L75.4064 179.426C75.3082 178.048 74.1121 177.011 72.7349 177.11C71.3577 177.208 70.3208 178.404 70.4191 179.781L71.842 199.731L51.8926 201.153C50.5154 201.252 49.4786 202.448 49.5768 203.825C49.6751 205.202 50.8711 206.239 52.2483 206.141L74.6913 204.54ZM85.7985 0.35785C22.5768 28.7322 -2.3247 61.5083 0.201526 97.05C1.45065 114.624 9.41571 132.468 22.0927 150.291C34.7778 168.125 52.2895 186.09 72.876 203.935L76.151 200.157C55.7293 182.455 38.5368 164.784 26.1671 147.393C13.7894 129.991 6.34944 113.023 5.18894 96.6955C2.89592 64.4346 25.1569 33.0547 87.8458 4.91949L85.7985 0.35785Z" fill="white"/>
</svg>
