<svg width="116" height="119" viewBox="0 0 116 119" fill="none" xmlns="http://www.w3.org/2000/svg">
<path d="M0.390531 103.001C-0.303957 104.195 0.100453 105.725 1.29379 106.419L20.7404 117.737C21.9337 118.431 23.4641 118.027 24.1586 116.833C24.8531 115.64 24.4487 114.11 23.2553 113.415L5.96946 103.355L16.0292 86.0695C16.7237 84.8761 16.3193 83.3458 15.1259 82.6513C13.9326 81.9568 12.4022 82.3612 11.7077 83.5546L0.390531 103.001ZM110.502 1.86161C110.705 2.41447 110.903 3.97059 110.665 6.64553C110.436 9.209 109.834 12.525 108.702 16.4023C106.439 24.1511 102.094 34.0375 94.5524 44.5034C79.4969 65.3974 51.6265 88.7046 1.91256 101.842L3.18996 106.676C53.9357 93.266 82.8251 69.3314 98.609 47.4265C106.487 36.4929 111.082 26.0906 113.501 17.8036C114.71 13.663 115.384 10.0244 115.645 7.08927C115.897 4.2656 115.798 1.77913 115.196 0.138219L110.502 1.86161Z" fill="white"/>
</svg>
