<svg width="148" height="73" viewBox="0 0 148 73" fill="none" xmlns="http://www.w3.org/2000/svg">
<path d="M1.17057 49.6235C0.0574135 50.4403 -0.182772 52.0049 0.634085 53.1181L13.9456 71.2579C14.7624 72.3711 16.327 72.6113 17.4402 71.7944C18.5533 70.9775 18.7935 69.413 17.9767 68.2998L6.14421 52.1755L22.2685 40.3431C23.3817 39.5262 23.6219 37.9616 22.805 36.8485C21.9881 35.7353 20.4236 35.4951 19.3104 36.312L1.17057 49.6235ZM142.504 0.853148C142.47 1.44108 142.03 2.94692 140.744 5.30429C139.511 7.56342 137.634 10.363 135.048 13.466C129.881 19.6672 121.95 26.9969 110.857 33.5818C88.7119 46.7279 53.8539 56.9705 3.02897 49.168L2.27027 54.1101C54.1501 62.0745 90.1927 51.6635 113.409 37.8813C124.998 31.0021 133.363 23.2989 138.889 16.6669C141.651 13.3532 143.721 10.2861 145.133 7.6994C146.491 5.21095 147.393 2.89188 147.496 1.14687L142.504 0.853148Z" fill="white"/>
</svg>
