<svg width="29" height="29" viewBox="0 0 29 29" fill="none" xmlns="http://www.w3.org/2000/svg">
<path d="M4.83334 26.1667C4.16876 26.1667 3.59983 25.93 3.12657 25.4568C2.6533 24.9835 2.41667 24.4146 2.41667 23.75V9.25001C2.41667 8.58543 2.6533 8.0165 3.12657 7.54324C3.59983 7.06998 4.16876 6.83334 4.83334 6.83334H24.1667C24.8313 6.83334 25.4002 7.06998 25.8734 7.54324C26.3467 8.0165 26.5833 8.58543 26.5833 9.25001V23.75C26.5833 24.4146 26.3467 24.9835 25.8734 25.4568C25.4002 25.93 24.8313 26.1667 24.1667 26.1667H4.83334ZM14.5 17.7083L4.83334 11.6667V23.75H24.1667V11.6667L14.5 17.7083ZM14.5 15.2917L24.1667 9.25001H4.83334L14.5 15.2917ZM4.83334 11.6667V9.25001V23.75V11.6667Z" fill="#B7B7B7"/>
</svg>
